<mxfile host="app.diagrams.net" modified="2024-03-09T07:46:55.313Z" agent="Mozilla/5.0 (Macintosh; Intel Mac OS X 10_15_7) AppleWebKit/537.36 (KHTML, like Gecko) Chrome/122.0.0.0 Safari/537.36" etag="FRVUuHOmS-GfsbDgP4eC" version="24.0.3" type="github">
  <diagram id="C5RBs43oDa-KdzZeNtuy" name="Page-1">
    <mxGraphModel dx="788" dy="751" grid="1" gridSize="10" guides="1" tooltips="1" connect="1" arrows="1" fold="1" page="1" pageScale="1" pageWidth="827" pageHeight="1169" math="0" shadow="0">
      <root>
        <mxCell id="WIyWlLk6GJQsqaUBKTNV-0" />
        <mxCell id="WIyWlLk6GJQsqaUBKTNV-1" parent="WIyWlLk6GJQsqaUBKTNV-0" />
        <mxCell id="7on_kM9ksG6Svcnzk46f-7" value="" style="edgeStyle=orthogonalEdgeStyle;rounded=0;orthogonalLoop=1;jettySize=auto;html=1;" edge="1" parent="WIyWlLk6GJQsqaUBKTNV-1" source="7on_kM9ksG6Svcnzk46f-0" target="7on_kM9ksG6Svcnzk46f-1">
          <mxGeometry relative="1" as="geometry" />
        </mxCell>
        <mxCell id="7on_kM9ksG6Svcnzk46f-0" value="start" style="ellipse;whiteSpace=wrap;html=1;" vertex="1" parent="WIyWlLk6GJQsqaUBKTNV-1">
          <mxGeometry x="130" y="20" width="80" height="50" as="geometry" />
        </mxCell>
        <mxCell id="7on_kM9ksG6Svcnzk46f-10" value="" style="edgeStyle=orthogonalEdgeStyle;rounded=0;orthogonalLoop=1;jettySize=auto;html=1;" edge="1" parent="WIyWlLk6GJQsqaUBKTNV-1" source="7on_kM9ksG6Svcnzk46f-1" target="7on_kM9ksG6Svcnzk46f-9">
          <mxGeometry relative="1" as="geometry" />
        </mxCell>
        <mxCell id="7on_kM9ksG6Svcnzk46f-1" value="H, B" style="shape=parallelogram;perimeter=parallelogramPerimeter;whiteSpace=wrap;html=1;fixedSize=1;size=30;" vertex="1" parent="WIyWlLk6GJQsqaUBKTNV-1">
          <mxGeometry x="100" y="130" width="140" height="60" as="geometry" />
        </mxCell>
        <mxCell id="7on_kM9ksG6Svcnzk46f-3" value="read" style="shape=parallelogram;perimeter=parallelogramPerimeter;whiteSpace=wrap;html=1;fixedSize=1;size=10;" vertex="1" parent="WIyWlLk6GJQsqaUBKTNV-1">
          <mxGeometry x="120" y="130" width="70" height="20" as="geometry" />
        </mxCell>
        <mxCell id="7on_kM9ksG6Svcnzk46f-21" style="edgeStyle=orthogonalEdgeStyle;rounded=0;orthogonalLoop=1;jettySize=auto;html=1;entryX=0.5;entryY=0;entryDx=0;entryDy=0;" edge="1" parent="WIyWlLk6GJQsqaUBKTNV-1" source="7on_kM9ksG6Svcnzk46f-9" target="7on_kM9ksG6Svcnzk46f-14">
          <mxGeometry relative="1" as="geometry" />
        </mxCell>
        <mxCell id="7on_kM9ksG6Svcnzk46f-9" value="A = H * R" style="whiteSpace=wrap;html=1;" vertex="1" parent="WIyWlLk6GJQsqaUBKTNV-1">
          <mxGeometry x="100" y="230" width="140" height="50" as="geometry" />
        </mxCell>
        <mxCell id="7on_kM9ksG6Svcnzk46f-24" value="" style="edgeStyle=orthogonalEdgeStyle;rounded=0;orthogonalLoop=1;jettySize=auto;html=1;" edge="1" parent="WIyWlLk6GJQsqaUBKTNV-1" source="7on_kM9ksG6Svcnzk46f-14" target="7on_kM9ksG6Svcnzk46f-23">
          <mxGeometry relative="1" as="geometry" />
        </mxCell>
        <mxCell id="7on_kM9ksG6Svcnzk46f-14" value="A" style="shape=parallelogram;perimeter=parallelogramPerimeter;whiteSpace=wrap;html=1;fixedSize=1;size=30;" vertex="1" parent="WIyWlLk6GJQsqaUBKTNV-1">
          <mxGeometry x="100" y="330" width="140" height="60" as="geometry" />
        </mxCell>
        <mxCell id="7on_kM9ksG6Svcnzk46f-15" value="write" style="shape=parallelogram;perimeter=parallelogramPerimeter;whiteSpace=wrap;html=1;fixedSize=1;size=10;" vertex="1" parent="WIyWlLk6GJQsqaUBKTNV-1">
          <mxGeometry x="120" y="330" width="70" height="20" as="geometry" />
        </mxCell>
        <mxCell id="7on_kM9ksG6Svcnzk46f-23" value="end" style="ellipse;whiteSpace=wrap;html=1;" vertex="1" parent="WIyWlLk6GJQsqaUBKTNV-1">
          <mxGeometry x="130" y="430" width="80" height="50" as="geometry" />
        </mxCell>
      </root>
    </mxGraphModel>
  </diagram>
</mxfile>
